<?xml version="1.0" standalone="no"?><!DOCTYPE svg PUBLIC "-//W3C//DTD SVG 1.1//EN" "http://www.w3.org/Graphics/SVG/1.1/DTD/svg11.dtd"><svg class="icon" height="12" viewBox="0 0 1024 1024" version="1.1" xmlns="http://www.w3.org/2000/svg"><path d="M27.002435 971.464348a64.601043 64.601043 0 0 1 0-91.314087L880.150261 27.002435c26.757565-23.596522 66.114783-25.177043 91.314087 0a64.601043 64.601043 0 0 1 0 91.291826L118.294261 971.464348a64.601043 64.601043 0 0 1-91.269565 0z" fill="#FFFFFF" /><path d="M880.150261 971.464348L27.002435 118.294261a64.601043 64.601043 0 0 1 0-91.269565 64.601043 64.601043 0 0 1 91.291826 0L971.464348 880.128a64.601043 64.601043 0 0 1 0 91.314087 64.601043 64.601043 0 0 1-91.314087 0z" fill="#FFFFFF" /></svg>